<svg id="Layer_1" data-name="Layer 1" xmlns="http://www.w3.org/2000/svg" viewBox="0 0 71.47 87.38"><defs><style>.cls-1{fill:#fff;}</style></defs><path class="cls-1" d="M202.24,342.56c0,4.63,2.32,6.22,6.48,6.22,4.47,0,6.47-1.89,6.47-6.2V335h-4.41v8c0,1.46-.47,2.47-2.06,2.47-1.81,0-2.07-1.14-2.07-2.47v-8h-4.41v7.59Z" transform="translate(-202.22 -273.02)"/><polygon class="cls-1" points="19.22 75.4 19.22 70.84 19.13 68.75 18.94 66.77 18.98 66.77 21.42 75.4 24.48 75.4 26.93 66.77 26.97 66.77 26.75 69.2 26.69 71.29 26.69 75.4 30.65 75.4 30.65 61.95 25.32 61.95 22.95 70.33 20.58 61.95 15.26 61.95 15.26 75.4 19.22 75.4 19.22 75.4"/><path class="cls-1" d="M243.18,335H238.7l-4.82,13.45h4.31l.51-1.77h4.38l.53,1.77H248Zm-3.64,8.88L240.9,339l1.42,4.82Z" transform="translate(-202.22 -273.02)"/><path class="cls-1" d="M260.08,338.88c-.32-2.36-2-4.26-5.76-4.26-3.36,0-5.82,1.44-5.82,4.3,0,5.13,7.73,3.73,7.73,5.77,0,.63-.73,1-1.83,1a2.44,2.44,0,0,1-1.25-.34,1.5,1.5,0,0,1-.73-1.06H248.2c.09,2.42,2.41,4.5,6,4.5s6.29-1.52,6.29-4.64c0-4.89-7.73-3.64-7.73-5.65,0-.49.43-.77,1.4-.77a2.55,2.55,0,0,1,1.14.24,1.19,1.19,0,0,1,.63.92Z" transform="translate(-202.22 -273.02)"/><path class="cls-1" d="M273.31,338.88c-.32-2.36-2-4.26-5.75-4.26-3.37,0-5.83,1.44-5.83,4.3,0,5.13,7.73,3.73,7.73,5.77,0,.63-.73,1-1.83,1a2.44,2.44,0,0,1-1.25-.34,1.53,1.53,0,0,1-.73-1.06h-4.22c.09,2.42,2.41,4.5,6,4.5s6.29-1.52,6.29-4.64c0-4.89-7.73-3.64-7.73-5.65,0-.49.43-.77,1.4-.77a2.55,2.55,0,0,1,1.14.24,1.17,1.17,0,0,1,.63.92Z" transform="translate(-202.22 -273.02)"/><path class="cls-1" d="M205.4,326.73c0-10.77,28.36-31.84,28.36-38.72,0-2.32-2.76-3-5.6-3-6,0-22.57,7.18-22.57,17.79,0,3.89,2.48,6.05,7.15,7.1-3.53,1.94-8.55.78-10.52-2.57v24.5h6.31A6.15,6.15,0,0,1,205.4,326.73Z" transform="translate(-202.22 -273.02)"/><path class="cls-1" d="M230.45,283.38a14.85,14.85,0,0,1,7.29,1.54L227.45,273.1H202.22V301A30.62,30.62,0,0,1,230.45,283.38Z" transform="translate(-202.22 -273.02)"/><path class="cls-1" d="M216.68,331.84h11.86v-6.75A38.4,38.4,0,0,1,216.68,331.84Z" transform="translate(-202.22 -273.02)"/><path class="cls-1" d="M248.45,273l-10.53,12.1a5.11,5.11,0,0,1,2.62,4.16c0,7.62-28.9,32-28.9,38.72,0,1.49.73,1.79,2.38,1.79,13.3,0,36.25-31,43.13-39.68,2.75-.45,6-.1,9-.4-5.85,6.35-21.07,30.44-21.07,38.36,0,2,1.47,3.07,3.67,3.07,4.32,0,10-6.58,10-14.21a5.39,5.39,0,0,1,2.3,4.41c0,4.29-3.16,8.12-7.39,10.12h20.07V273Z" transform="translate(-202.22 -273.02)"/><path class="cls-1" d="M202.22,351.25h2.89v6.65h4.15v2.29h-7Z" transform="translate(-202.22 -273.02)"/><path class="cls-1" d="M218,351a4.69,4.69,0,1,1-4.76,4.68A4.5,4.5,0,0,1,218,351Zm0,7.14c.74,0,1.87-.47,1.87-2.46s-1.13-2.45-1.87-2.45-1.87.46-1.87,2.45S217.25,358.18,218,358.18Z" transform="translate(-202.22 -273.02)"/><path class="cls-1" d="M236.35,360.19h-2.81l-1-5.44h0l-1,5.44h-2.82l-2.55-8.94H229l1.14,5.52h0l1.13-5.52h2.55l1.1,5.6h0l1.17-5.6H239Z" transform="translate(-202.22 -273.02)"/><path class="cls-1" d="M242.79,351.25h7.77v2.29h-4.88v1.12h4.43v2.13h-4.43v1.11h5v2.29h-7.92Z" transform="translate(-202.22 -273.02)"/><path class="cls-1" d="M255.2,351.25h2.89v6.65h4.16v2.29H255.2Z" transform="translate(-202.22 -273.02)"/><path class="cls-1" d="M266.55,351.25h2.89v6.65h4.15v2.29h-7Z" transform="translate(-202.22 -273.02)"/></svg>